<svg xmlns="http://www.w3.org/2000/svg" viewBox="0 0 200 120" role="img" aria-label="Car">
  <defs>
    <linearGradient id="cg" x1="0" y1="0" x2="0" y2="1">
      <stop offset="0" stop-color="#7e57c2"/>
      <stop offset="1" stop-color="#4527a0"/>
    </linearGradient>
  </defs>
  <path d="M55 52 Q62 32 84 32 L124 32 Q146 32 154 52 Z" fill="url(#cg)"/>
  <path d="M88 36 L120 36 L120 52 L84 52 Q84 40 88 36 Z" fill="#d1c4e9"/>
  <path d="M126 36 L138 36 Q146 42 149 52 L126 52 Z" fill="#d1c4e9"/>
  <rect x="30" y="50" width="145" height="30" rx="12" fill="url(#cg)"/>
  <text x="102" y="71" text-anchor="middle" font-family="Arial, sans-serif" font-size="11" font-weight="bold" fill="#ffffff">CAR 💙</text>
  <circle cx="62" cy="82" r="13" fill="#263238"/>
  <circle cx="62" cy="82" r="5.5" fill="#90a4ae"/>
  <circle cx="142" cy="82" r="13" fill="#263238"/>
  <circle cx="142" cy="82" r="5.5" fill="#90a4ae"/>
  <rect x="171" y="56" width="7" height="8" rx="2" fill="#ffca28"/>
</svg>
